<svg enable-background="new 0 0 32 32" height="512" viewBox="0 0 32 32" width="512" xmlns="http://www.w3.org/2000/svg"><path d="m26 32h-20c-3.314 0-6-2.686-6-6v-20c0-3.314 2.686-6 6-6h20c3.314 0 6 2.686 6 6v20c0 3.314-2.686 6-6 6z" fill="#fff9dd"/><path d="m14.471 20.685c-.125.125-.294.195-.471.195s-.346-.07-.471-.195l-3.765-3.765c-.391-.391-.39-1.024 0-1.414l.471-.471c.391-.391 1.024-.391 1.414 0l2.35 2.35 6.35-6.35c.391-.391 1.024-.391 1.414 0l.471.471c.391.391.391 1.024 0 1.414z" fill="#ffd200"/></svg>