<?xml version="1.0" standalone="no"?>
<!DOCTYPE svg PUBLIC "-//W3C//DTD SVG 20010904//EN"
 "http://www.w3.org/TR/2001/REC-SVG-20010904/DTD/svg10.dtd">
<svg version="1.0" xmlns="http://www.w3.org/2000/svg"
 width="1344.000000pt" height="1344.000000pt" viewBox="0 0 1344.000000 1344.000000"
 preserveAspectRatio="xMidYMid meet">
<metadata>
Created by potrace 1.11, written by Peter Selinger 2001-2013
</metadata>
<g transform="translate(0.000000,1344.000000) scale(0.100000,-0.100000)"
fill="#000000" stroke="none">
<path d="M6807 13416 c-3 -7 -1 -18 4 -23 5 -5 11 -26 14 -48 3 -22 8 -51 11
-65 3 -14 7 -34 9 -45 1 -11 7 -45 13 -75 6 -30 13 -68 16 -85 3 -16 7 -39 9
-50 3 -11 8 -47 13 -80 8 -61 10 -73 14 -77 1 -2 3 -14 4 -28 7 -63 17 -136
21 -150 2 -8 7 -40 11 -70 3 -30 7 -64 9 -75 3 -22 12 -92 21 -170 3 -27 7
-61 9 -75 3 -14 7 -54 10 -90 3 -35 7 -76 9 -90 3 -14 7 -63 11 -110 4 -47 8
-101 10 -120 2 -19 6 -80 10 -135 3 -55 8 -120 10 -145 6 -79 17 -358 20 -570
4 -206 10 -325 20 -390 24 -156 44 -263 58 -305 3 -11 8 -31 11 -45 7 -35 40
-146 61 -200 9 -25 22 -61 28 -80 6 -19 14 -37 17 -40 3 -3 6 -12 8 -20 3 -16
119 -252 152 -309 45 -79 134 -211 141 -211 5 0 9 -6 9 -13 0 -7 8 -22 18 -33
9 -10 30 -36 46 -58 46 -61 84 -103 201 -221 113 -113 137 -135 215 -195 25
-19 47 -37 50 -40 14 -17 161 -112 166 -108 3 3 -9 35 -26 72 -16 37 -30 71
-30 76 0 6 -13 43 -29 83 -31 76 -43 107 -46 120 -2 4 -4 9 -5 12 -1 3 -3 8
-4 13 -1 4 -5 13 -9 20 -5 6 -5 12 -1 12 3 0 -1 11 -10 25 -9 14 -14 25 -11
25 3 0 -2 17 -9 38 -21 53 -75 227 -79 249 -1 10 -5 23 -8 28 -5 9 -17 46 -24
80 -2 8 -19 68 -30 105 -1 3 -5 23 -10 45 -11 49 -10 47 -18 65 -3 8 -10 38
-16 65 -7 28 -14 59 -16 70 -23 100 -43 211 -39 217 3 4 1 8 -4 8 -5 0 -9 6
-10 13 -1 17 -10 77 -16 112 -3 17 -9 46 -12 65 -3 19 -9 49 -12 65 -3 17 -6
45 -6 62 -1 18 -3 33 -6 33 -3 0 -7 15 -9 33 -1 17 -4 46 -6 62 -2 17 -7 57
-10 90 -4 33 -8 74 -10 90 -2 17 -4 30 -5 30 -1 0 -3 14 -3 30 -1 17 -5 35
-10 42 -4 6 -3 15 3 18 6 4 10 3 9 -2 -1 -4 0 -10 1 -13 2 -7 7 -33 14 -77 3
-21 8 -49 10 -63 3 -14 7 -42 10 -62 3 -21 10 -56 15 -77 5 -22 6 -42 3 -45
-2 -3 1 -12 8 -21 7 -8 10 -15 8 -15 -3 0 -1 -19 3 -42 5 -24 12 -58 14 -77 3
-19 8 -37 10 -41 3 -4 7 -25 11 -46 3 -22 15 -77 26 -124 22 -95 26 -112 34
-155 7 -37 9 -46 16 -65 3 -8 23 -80 43 -160 20 -80 43 -163 50 -185 30 -96
48 -161 48 -172 0 -7 5 -13 10 -13 6 0 8 -3 5 -6 -3 -3 5 -35 18 -72 14 -37
25 -68 25 -69 -1 -7 43 -128 61 -173 6 -14 14 -34 18 -45 20 -53 64 -155 85
-196 13 -26 21 -49 18 -53 -4 -3 -2 -6 3 -6 6 0 18 -18 28 -41 10 -22 20 -38
22 -36 7 6 17 59 30 152 3 28 8 59 10 70 3 11 7 40 10 65 3 25 7 61 10 80 2
19 7 64 10 100 2 36 7 92 10 125 17 202 19 825 3 825 -3 0 -5 25 -4 55 0 30
-3 55 -8 55 -5 0 -4 7 3 15 7 8 8 15 3 15 -5 0 -8 16 -8 35 1 20 -1 38 -4 39
-3 2 -6 29 -6 60 0 31 -2 56 -5 56 -3 0 -7 15 -7 33 -3 48 -14 119 -35 227 -5
30 -11 65 -11 78 -1 12 -4 22 -9 22 -4 0 -5 7 -2 15 3 8 2 20 -2 27 -4 7 -9
21 -10 33 -4 34 -11 66 -34 155 -12 47 -24 92 -25 100 -2 8 -4 15 -5 15 -1 0
-3 10 -5 21 -15 80 -145 448 -208 589 -49 110 -179 365 -188 371 -5 3 -7 9 -4
13 2 5 -4 16 -15 26 -11 10 -20 23 -20 29 0 5 -11 26 -24 45 -12 20 -45 70
-71 111 -52 82 -201 285 -228 312 -9 9 -17 21 -17 26 0 6 -3 12 -7 14 -5 2
-39 39 -78 83 -84 96 -267 279 -355 355 -35 30 -68 60 -74 65 -6 6 -40 33 -76
60 -36 28 -66 53 -68 58 -6 12 -19 8 -25 -7z"/>
<path d="M5337 9714 c-1 -1 -54 -5 -117 -8 -63 -4 -131 -9 -150 -11 -19 -3
-58 -7 -86 -10 -29 -3 -60 -7 -70 -9 -11 -2 -41 -7 -69 -10 -27 -4 -80 -11
-118 -16 -37 -6 -89 -12 -115 -15 -26 -3 -58 -8 -72 -10 -53 -8 -178 -22 -265
-30 -27 -2 -70 -7 -95 -11 -43 -6 -68 -8 -186 -17 -28 -2 -55 -6 -60 -8 -5 -3
-35 -5 -66 -5 -32 1 -58 -2 -58 -5 0 -3 -25 -5 -55 -5 -30 1 -55 -1 -55 -4 0
-3 -21 -6 -48 -6 -58 -2 -267 -13 -342 -19 -80 -6 -313 -16 -475 -20 -171 -4
-790 -5 -825 -2 -44 5 -42 -4 7 -41 60 -46 62 -47 98 -75 17 -13 80 -57 140
-98 61 -40 112 -77 113 -81 2 -4 8 -8 14 -8 5 0 55 -27 110 -61 86 -52 363
-202 378 -205 7 -1 121 -53 142 -64 10 -6 25 -10 33 -10 8 0 15 -5 15 -11 0
-5 4 -8 9 -4 5 3 15 0 23 -7 7 -7 20 -14 28 -16 8 -2 78 -27 155 -57 124 -47
282 -101 325 -110 8 -2 36 -11 63 -20 26 -9 52 -13 57 -10 6 3 10 2 10 -3 0
-6 23 -13 50 -17 28 -4 50 -10 50 -14 0 -4 8 -7 18 -8 21 -2 43 -6 162 -33 52
-12 109 -23 125 -25 17 -3 41 -7 55 -11 26 -6 41 -9 100 -18 19 -3 46 -8 60
-11 37 -7 179 -25 325 -40 33 -4 74 -8 90 -10 53 -7 483 -28 540 -27 6 0 111
3 235 5 124 3 245 8 270 11 25 3 83 8 130 11 47 3 101 8 120 11 19 3 44 5 55
5 19 -1 239 25 295 34 14 3 43 7 65 10 22 4 54 9 70 11 17 3 41 7 55 9 40 6
93 15 125 22 17 3 41 7 55 8 14 1 32 5 40 8 15 5 54 13 115 24 17 2 68 14 115
25 47 11 96 22 110 24 14 3 68 17 120 31 52 14 104 27 115 30 11 2 25 5 30 7
6 2 31 9 58 17 26 7 47 17 47 22 0 4 4 5 10 2 9 -6 137 32 153 46 7 5 -43 22
-103 34 -8 2 -33 8 -55 13 -49 14 -81 20 -175 36 -14 3 -25 5 -25 7 0 1 -13 3
-30 4 -16 2 -30 4 -30 5 0 2 -28 7 -80 14 -84 12 -101 14 -125 20 -14 3 -47 8
-75 12 -27 3 -63 8 -80 10 -16 2 -42 4 -57 4 -14 0 -38 4 -52 10 -18 6 -26 6
-26 -1 0 -6 -5 -7 -11 -3 -11 7 -61 13 -139 19 -25 1 -45 4 -45 5 0 0 -31 3
-70 6 -38 2 -93 5 -121 7 -27 2 -56 7 -62 11 -7 4 -12 2 -12 -4 0 -6 -5 -8
-10 -5 -9 6 -167 16 -282 19 -21 1 -38 4 -38 8 0 4 -13 3 -29 -2 -16 -4 -32
-6 -35 -3 -7 7 -241 12 -560 13 -148 0 -268 2 -265 4 11 11 439 28 689 28 235
0 563 -11 750 -27 41 -3 102 -8 135 -10 33 -3 83 -8 110 -11 28 -3 73 -8 100
-9 28 -2 61 -6 75 -9 14 -2 50 -7 80 -10 30 -3 66 -7 80 -10 14 -2 50 -7 81
-11 31 -3 67 -8 80 -11 13 -3 40 -7 59 -9 19 -2 46 -6 60 -9 13 -3 39 -7 57
-8 18 -1 33 -5 33 -8 0 -3 12 -5 28 -4 15 1 32 -1 37 -5 6 -3 21 -6 35 -7 14
-1 25 -2 25 -3 0 -3 28 -8 79 -15 l29 -5 -41 37 c-48 44 -69 62 -102 85 -13 9
-20 17 -15 17 6 0 -9 12 -32 26 -24 14 -43 30 -43 35 0 6 -4 8 -9 5 -5 -3 -11
1 -15 9 -3 8 -10 15 -16 15 -6 0 -19 8 -30 18 -17 16 -218 143 -265 168 -11 6
-42 22 -68 37 -26 15 -54 27 -62 27 -7 0 -15 4 -17 9 -2 7 -109 62 -128 66 -3
0 -21 8 -40 17 -19 9 -71 30 -115 46 -44 17 -89 34 -100 38 -11 4 -22 8 -25 9
-3 0 -36 11 -73 24 -38 13 -92 29 -120 36 -154 39 -190 48 -277 65 -149 29
-259 43 -429 56 -68 5 -360 12 -364 8z m-247 -699 c0 -7 -30 -13 -34 -7 -3 4
4 9 15 9 10 1 19 0 19 -2z"/>
<path d="M7576 7883 c-2 -2 -42 -6 -87 -8 -46 -2 -111 -7 -144 -10 -55 -6 -76
-9 -145 -20 -14 -2 -45 -7 -70 -10 -25 -3 -52 -7 -60 -9 -8 -1 -33 -6 -55 -10
-22 -4 -71 -14 -110 -23 -38 -8 -81 -17 -95 -19 -14 -3 -36 -9 -50 -14 -14 -5
-45 -14 -70 -20 -54 -13 -227 -67 -255 -79 -24 -11 -58 -24 -65 -25 -23 -5
-130 -51 -230 -99 -42 -21 -79 -37 -82 -37 -4 0 -31 -14 -60 -31 -29 -17 -58
-32 -64 -33 -5 -1 -23 -12 -38 -24 -16 -12 -33 -22 -37 -22 -5 0 -35 -17 -66
-37 -70 -46 -91 -59 -120 -74 -13 -7 -23 -16 -23 -21 0 -4 -5 -8 -11 -8 -6 0
-24 -10 -39 -22 -15 -13 -37 -30 -50 -38 -12 -8 -28 -19 -34 -25 -6 -5 -29
-23 -51 -40 -22 -16 -45 -34 -51 -40 -7 -5 -31 -26 -55 -45 -125 -101 -352
-327 -466 -465 -41 -49 -83 -99 -92 -110 -43 -52 -131 -176 -131 -185 0 -5 -3
-10 -8 -10 -4 0 -23 -26 -41 -57 -19 -32 -37 -60 -41 -63 -11 -9 -64 -105 -62
-112 1 -5 -1 -8 -6 -8 -4 0 -25 -35 -47 -78 -22 -42 -43 -78 -47 -80 -5 -2 -8
-8 -8 -13 0 -15 -43 -103 -54 -111 -6 -4 -8 -8 -4 -8 6 0 -21 -66 -62 -155 -9
-19 -57 -148 -64 -170 -2 -5 -6 -17 -9 -25 -11 -27 -47 -145 -52 -168 -2 -12
-6 -26 -9 -30 -3 -5 -7 -19 -10 -33 -2 -13 -14 -62 -26 -109 -26 -98 -33 -136
-34 -167 -1 -13 -5 -23 -10 -23 -5 0 -7 -2 -4 -5 3 -4 2 -23 -3 -43 -4 -20
-11 -59 -15 -87 -3 -27 -8 -59 -10 -70 -3 -11 -7 -42 -9 -70 -8 -78 -14 -130
-15 -130 -1 0 -7 -77 -15 -215 -2 -36 -4 -66 -5 -67 -6 -7 -5 -31 1 -55 4 -16
5 -28 1 -28 -4 0 -6 -46 -5 -102 1 -57 2 -121 2 -143 0 -22 1 -47 1 -55 0 -31
9 -169 14 -231 3 -35 9 -93 12 -129 3 -36 7 -81 10 -100 9 -63 13 -94 19 -130
3 -19 8 -51 10 -70 3 -19 7 -46 10 -60 3 -14 8 -38 11 -55 3 -16 10 -50 15
-75 6 -25 13 -56 15 -70 14 -70 86 -332 104 -375 5 -11 23 -60 41 -110 17 -49
49 -129 70 -178 20 -48 34 -87 31 -87 -4 0 -2 -4 3 -8 10 -7 37 -61 37 -72 0
-3 7 -13 15 -22 9 -10 13 -18 9 -18 -4 0 2 -12 13 -26 12 -15 21 -31 21 -36 0
-13 110 -201 122 -209 6 -3 9 -9 9 -13 -1 -3 27 -47 61 -97 35 -51 68 -99 73
-108 6 -9 12 -18 15 -21 3 -3 21 -25 40 -50 39 -50 60 -77 75 -94 6 -6 28 -31
49 -56 88 -102 235 -248 361 -360 68 -60 193 -160 201 -160 3 0 17 -11 30 -26
13 -14 24 -22 24 -19 0 4 17 -7 38 -23 63 -49 238 -159 332 -208 30 -16 57
-31 60 -34 3 -3 30 -16 60 -30 30 -13 61 -29 69 -34 7 -6 18 -11 25 -12 6 -1
45 -17 86 -36 41 -19 91 -40 110 -47 19 -8 49 -20 67 -27 17 -8 37 -14 45 -14
8 0 18 -3 22 -7 4 -5 11 -8 14 -9 4 0 14 -3 22 -7 20 -7 88 -28 103 -31 7 -2
32 -9 57 -16 25 -8 52 -15 60 -15 9 -1 26 -7 38 -14 12 -6 22 -10 22 -7 0 2
17 0 38 -5 20 -6 51 -12 67 -15 17 -3 37 -8 45 -11 8 -3 25 -7 37 -9 11 -1 59
-9 105 -18 84 -15 119 -20 218 -31 30 -4 66 -8 80 -10 159 -25 802 -25 952 0
34 6 148 17 185 19 18 0 33 4 33 7 0 3 6 6 13 6 20 1 111 14 127 18 8 2 30 7
48 10 18 3 61 12 95 21 34 8 71 17 82 19 41 8 110 26 125 32 19 8 28 10 60 17
23 5 41 11 95 32 11 4 22 8 25 9 27 6 119 40 135 49 11 6 25 11 30 12 24 2
238 102 360 167 74 39 240 141 278 170 20 16 37 26 37 22 0 -3 10 4 23 16 12
11 33 28 47 37 24 16 104 77 126 97 6 6 33 28 60 50 100 83 271 249 351 341
23 27 52 61 66 76 13 15 32 39 43 54 10 14 26 34 35 43 28 28 159 209 159 220
0 5 4 11 9 13 22 8 299 496 306 538 0 3 10 25 22 50 35 75 137 347 148 394 1
6 5 18 8 26 5 12 21 68 33 113 1 4 2 8 3 10 5 5 14 53 15 75 1 12 4 22 7 22 4
0 12 28 19 63 7 34 14 71 17 82 2 11 6 29 8 40 2 11 8 45 14 75 18 97 27 158
35 225 4 28 9 70 12 95 4 25 8 63 9 85 2 22 4 40 5 40 5 0 14 278 14 460 -1
188 -9 460 -15 460 -2 0 -4 18 -13 105 -3 36 -11 94 -17 130 -6 36 -12 83 -14
105 -2 22 -5 42 -6 45 -1 3 -3 10 -4 15 -4 23 -18 92 -22 110 -3 11 -6 29 -8
40 -2 11 -8 35 -14 53 -5 17 -7 32 -3 32 3 0 1 5 -5 11 -6 6 -9 18 -6 25 3 8
1 14 -3 14 -5 0 -10 10 -10 23 -2 23 -36 143 -74 257 -38 115 -109 289 -165
405 -32 66 -58 123 -57 127 1 3 -5 12 -13 18 -8 7 -15 16 -15 21 0 27 -234
390 -302 468 -7 8 -28 36 -48 62 -84 112 -325 364 -459 479 -77 67 -240 194
-301 235 -25 16 -47 32 -50 35 -3 3 -14 10 -25 17 -106 63 -161 99 -167 108
-4 5 -8 6 -8 1 0 -5 -6 -4 -13 2 -18 15 -250 133 -327 166 -72 31 -267 106
-290 112 -8 2 -69 20 -135 40 -66 19 -129 37 -140 39 -11 2 -54 11 -95 20
-102 23 -104 23 -200 40 -113 20 -187 29 -232 30 -21 0 -38 2 -38 5 0 3 -28 7
-62 9 -35 2 -81 5 -103 8 -55 5 -574 11 -579 6z m385 -1297 c103 -9 276 -47
304 -66 12 -9 67 -24 78 -22 4 1 7 -2 7 -6 0 -4 17 -14 38 -21 20 -8 39 -17
42 -21 3 -3 26 -17 53 -29 26 -13 47 -27 47 -32 0 -6 5 -7 10 -4 6 3 10 2 10
-3 0 -4 17 -18 38 -30 70 -40 184 -150 271 -261 121 -154 269 -461 365 -756
19 -60 38 -125 41 -144 3 -19 10 -42 16 -53 6 -11 8 -26 5 -34 -3 -8 -1 -14 5
-14 5 0 9 -6 8 -12 -2 -7 4 -40 11 -73 8 -33 14 -62 15 -65 1 -5 15 -87 22
-130 2 -14 5 -38 7 -55 2 -16 7 -46 10 -65 3 -19 8 -56 11 -82 3 -27 7 -67 10
-90 3 -24 6 -67 7 -95 2 -29 6 -53 11 -53 4 0 3 -8 -2 -18 -5 -10 -7 -23 -3
-29 4 -6 7 -49 7 -95 0 -45 5 -86 10 -90 6 -5 5 -8 -3 -8 -7 0 -11 -4 -7 -10
12 -19 2 -560 -10 -581 -4 -5 -1 -9 6 -9 8 0 8 -4 2 -12 -6 -7 -10 -20 -10
-28 0 -14 -9 -113 -18 -200 -5 -50 -15 -102 -21 -112 -3 -4 0 -8 6 -8 7 0 8
-5 3 -12 -4 -7 -8 -21 -9 -30 -1 -10 -3 -19 -4 -20 -1 -2 -3 -14 -5 -28 -4
-30 -15 -94 -21 -124 -3 -11 -8 -37 -11 -56 -3 -19 -9 -40 -15 -47 -5 -7 -7
-17 -3 -23 4 -6 1 -17 -5 -25 -7 -8 -10 -15 -7 -15 3 0 -1 -24 -9 -52 -8 -29
-16 -60 -19 -68 -8 -33 -68 -216 -73 -225 -4 -5 -7 -12 -8 -15 -2 -11 -16 -46
-25 -62 -5 -10 -9 -22 -9 -28 0 -5 -26 -62 -57 -127 -32 -65 -56 -121 -55
-126 1 -4 -3 -7 -8 -7 -6 0 -10 -4 -10 -9 0 -17 -71 -133 -126 -206 -64 -85
-151 -177 -219 -230 -27 -22 -56 -46 -63 -52 -7 -7 -17 -13 -22 -13 -5 0 -15
-6 -23 -14 -20 -20 -193 -110 -242 -126 -22 -7 -44 -15 -50 -19 -5 -3 -16 -7
-22 -8 -33 -7 -48 -12 -48 -14 0 -1 -9 -3 -20 -5 -11 -2 -42 -8 -70 -14 -27
-6 -75 -14 -105 -17 -96 -11 -343 -7 -365 6 -5 3 -19 6 -30 7 -16 0 -69 12
-135 29 -3 1 -14 5 -25 9 -11 4 -33 13 -50 19 -51 18 -160 71 -163 79 -2 4 -8
8 -14 8 -12 0 -113 67 -155 103 -78 66 -151 137 -190 183 -18 22 -44 53 -58
69 -39 46 -145 202 -145 214 0 6 -4 11 -8 11 -4 0 -27 37 -51 83 -23 45 -47
89 -51 97 -41 69 -174 421 -195 514 -2 12 -8 37 -13 56 -12 48 -12 48 -16 62
-7 22 -26 112 -31 143 -2 17 -6 41 -9 55 -8 33 -18 101 -20 125 -1 11 -4 25
-7 30 -3 6 -5 25 -5 43 1 17 -1 32 -4 32 -3 0 -6 21 -8 48 -1 26 -4 65 -7 87
-8 67 -19 237 -19 293 0 28 -3 52 -7 52 -4 0 -4 15 1 33 4 18 3 43 -1 55 -5
14 -4 22 2 22 6 0 7 5 3 12 -7 11 -9 77 -4 103 1 6 1 12 0 15 -7 19 -7 41 1
46 5 3 5 13 -1 25 -6 10 -7 19 -3 19 4 0 8 39 9 88 2 175 19 363 50 552 9 52
17 110 19 128 2 19 9 40 14 46 6 7 8 15 5 19 -16 15 92 376 162 545 25 59 46
112 47 117 1 6 4 12 7 15 3 3 21 37 40 75 19 39 39 73 45 77 5 4 7 8 3 8 -9 0
101 174 113 178 5 2 9 10 9 18 0 8 4 14 8 14 5 0 13 9 18 19 35 74 311 341
353 341 5 0 11 3 13 8 4 10 76 55 123 76 22 10 56 26 75 35 19 9 37 16 40 17
3 0 37 10 75 21 39 12 84 24 100 27 17 4 41 9 55 12 14 3 79 8 145 11 66 3
122 7 123 9 2 1 9 1 15 -1 7 -2 42 -6 78 -9z"/>
</g>
</svg>
